<?xml version="1.0"?>
<svg xmlns="http://www.w3.org/2000/svg" xmlns:xlink="http://www.w3.org/1999/xlink" version="1.1" id="Capa_1" x="0px" y="0px" width="512px" height="512px" viewBox="0 0 612 612" style="enable-background:new 0 0 612 612;" xml:space="preserve" class=""><g><g>
	<g id="plus">
		<g>
			<path d="M554.625,248.625h-191.25V57.375C363.375,25.685,337.69,0,306,0c-31.69,0-57.375,25.685-57.375,57.375v191.25H57.375     C25.685,248.625,0,274.31,0,306c0,31.69,25.685,57.375,57.375,57.375h191.25v191.25C248.625,586.315,274.31,612,306,612     c31.69,0,57.375-25.685,57.375-57.375v-191.25h191.25C586.315,363.375,612,337.69,612,306     C612,274.31,586.315,248.625,554.625,248.625z" data-original="#000000" class="active-path" data-old_color="#000000" fill="#FFFFFF"/>
		</g>
	</g>
</g></g> </svg>
